<?xml version="1.0" standalone="no"?>
<!DOCTYPE svg PUBLIC "-//W3C//DTD SVG 20010904//EN"
 "http://www.w3.org/TR/2001/REC-SVG-20010904/DTD/svg10.dtd">
<svg version="1.0" xmlns="http://www.w3.org/2000/svg"
 width="700.000000pt" height="700.000000pt" viewBox="0 0 700.000000 700.000000"
 preserveAspectRatio="xMidYMid meet">
<metadata>
Created by potrace 1.14, written by Peter Selinger 2001-2017
</metadata>
<g transform="translate(0.000000,700.000000) scale(0.100000,-0.100000)"
fill="#000000" stroke="none">
<path d="M4350 6122 c-546 -276 -1342 -678 -1887 -952 l-501 -253 -1 -733 -1
-733 403 -202 c221 -111 495 -250 610 -308 114 -58 221 -112 237 -120 17 -8
30 -17 30 -20 0 -3 -287 -151 -637 -328 l-638 -321 0 -731 c-1 -402 2 -731 5
-731 3 0 185 90 404 201 219 110 399 199 400 197 1 -2 10 -32 20 -68 25 -92
78 -188 139 -251 76 -77 96 -92 178 -133 140 -68 101 -66 1144 -63 936 3 940
3 1005 25 72 23 167 79 226 130 85 73 170 220 190 327 13 73 12 1033 -2 1100
-44 210 -200 383 -409 451 -76 26 -92 27 -310 30 -126 1 -234 3 -240 3 -7 1
-10 157 -10 448 l0 448 -150 76 c-82 41 -372 187 -642 324 -271 137 -492 249
-490 251 1 1 286 145 632 319 347 175 635 322 640 327 10 9 15 1457 5 1462 -3
2 -160 -76 -350 -172z m118 -4398 c114 -58 211 -109 215 -114 17 -16 -4 -46
-43 -64 -22 -9 -108 -50 -192 -90 -84 -40 -196 -94 -248 -119 -52 -24 -148
-70 -213 -101 -65 -32 -126 -56 -135 -54 -15 3 -17 27 -20 223 l-2 220 202
103 c112 56 209 102 216 102 7 0 106 -48 220 -106z"/>
</g>
</svg>
